<svg version="1.0" xmlns="http://www.w3.org/2000/svg" preserveAspectRatio="xMidYMid meet"
    viewBox="159 176.68 182.02 146.32">
    <g transform="translate(0.000000,500.000000) scale(0.100000,-0.100000)" fill="#000000" stroke="none">
        <path
            d="M2275 3206 c-22 -12 -104 -57 -182 -100 l-143 -78 0 -138 c0 -98 4 -140 13 -147 6 -6 98 -54 202 -108 214 -110 225 -117 225 -127 0 -4 -18 -17 -41 -28 -25 -13 -39 -27 -37 -36 2 -9 66 -48 143 -88 77 -40 158 -83 180 -95 l40 -24 129 72 c71 40 155 86 186 103 55 28 58 32 64 75 8 57 8 191 0 219 -4 15 -45 42 -142 92 -75 38 -156 81 -179 94 l-43 23 0 125 -1 125 -69 34 -70 34 -54 -29 -54 -28 -50 27 c-59 32 -65 32 -117 3z m97 -27 l41 -21 -31 -18 c-76 -46 -183 -100 -199 -100 -10 0 -31 9 -47 19 l-28 19 108 61 c60 33 110 61 112 61 1 0 21 -9 44 -21z m218 0 c22 -12 40 -24 40 -28 0 -4 -33 -24 -72 -46 -40 -21 -111 -60 -157 -87 l-84 -48 -44 21 c-23 11 -43 24 -43 28 0 4 33 23 73 43 96 50 220 118 232 129 12 12 8 12 55 -12z m68 -101 c-3 -39 -7 -45 -47 -67 -42 -23 -47 -23 -85 -10 -23 8 -40 18 -39 23 1 9 151 95 166 96 5 0 7 -19 5 -42z m-468 -78 c52 -28 119 -62 148 -77 28 -14 52 -30 52 -34 0 -4 -16 -16 -35 -27 l-34 -21 -48 26 c-26 14 -95 50 -153 80 -58 30 -109 59 -114 63 -10 10 41 39 69 39 11 1 63 -22 115 -49z m296 -16 c19 -9 34 -19 34 -23 0 -3 -20 -17 -44 -29 l-44 -24 -43 22 -43 22 40 24 c46 28 55 29 100 8z m174 -14 c0 -33 -14 -38 -43 -15 -18 13 -17 14 10 29 15 8 29 15 31 16 1 0 2 -13 2 -30z m-552 -52 c64 -34 134 -70 155 -80 35 -17 37 -21 37 -63 0 -25 -3 -45 -6 -45 -4 0 -43 20 -88 44 -44 24 -109 58 -143 75 -35 18 -70 39 -78 47 -17 17 -21 84 -4 84 6 0 63 -28 127 -62z m503 5 c16 -10 28 -22 26 -26 -1 -5 -39 -29 -82 -52 -129 -69 -179 -97 -189 -106 -23 -21 -36 -8 -36 34 l0 42 82 45 c44 25 95 53 112 63 38 21 51 21 87 0z m176 -94 c56 -29 101 -55 98 -58 -2 -3 -20 -15 -40 -25 l-36 -20 -107 53 -106 53 39 24 c22 13 42 24 45 24 3 0 51 -23 107 -51z m-679 -82 l3 -48 -70 36 c-69 34 -71 36 -71 73 0 21 3 41 6 44 3 4 33 -8 67 -25 62 -32 62 -32 65 -80z m511 40 l33 -14 -55 -32 c-30 -17 -60 -31 -66 -31 -6 0 -11 17 -11 39 0 44 33 80 55 61 6 -5 26 -16 44 -23z m-321 -136 c4 -51 -3 -51 -88 -7 -57 30 -65 37 -68 66 -6 63 1 65 80 21 71 -38 73 -41 76 -80z m192 75 l0 -45 -74 -40 c-40 -23 -76 -41 -80 -41 -3 0 -6 19 -6 43 0 42 1 42 73 84 39 24 75 43 80 43 4 0 7 -20 7 -44z m240 4 c22 -11 40 -22 40 -24 0 -3 -12 -11 -27 -19 -16 -8 -61 -32 -102 -55 l-75 -40 -43 21 c-24 12 -43 23 -43 26 1 8 182 108 198 110 7 0 31 -8 52 -19z m239 3 c17 -10 31 -21 31 -24 0 -3 -44 -29 -97 -58 -54 -28 -126 -67 -161 -86 -62 -34 -63 -34 -97 -18 -19 9 -35 21 -35 27 0 6 30 27 68 46 37 19 105 56 152 82 47 26 90 48 97 48 6 0 25 -8 42 -17z m44 -143 c-4 -5 -33 -22 -63 -38 -30 -17 -95 -53 -145 -81 -49 -28 -96 -51 -102 -51 -14 0 -18 58 -5 76 8 13 115 76 232 138 l85 44 3 -40 c2 -22 0 -44 -5 -48z m-449 -32 l96 -52 0 -43 c0 -24 -4 -43 -10 -43 -17 0 -274 138 -278 149 -5 15 59 52 79 46 9 -3 60 -29 113 -57z m456 -52 c0 -43 -1 -44 -59 -75 -32 -17 -62 -31 -65 -31 -3 0 -6 19 -6 43 0 41 2 43 58 74 31 17 60 32 65 32 4 1 7 -19 7 -43z m-457 -77 l97 -52 0 -43 c0 -24 -3 -44 -6 -44 -8 0 -278 140 -287 149 -12 12 55 52 78 46 11 -2 64 -28 118 -56z m297 -7 c0 -39 -10 -53 -59 -80 -114 -65 -111 -64 -111 -12 0 30 5 43 23 54 39 25 132 75 140 76 4 0 7 -17 7 -38z">
        </path>
        <path
            d="M1625 2075 c-48 -47 -25 -104 49 -125 54 -15 77 -37 55 -51 -22 -14 -69 -11 -75 6 -6 15 -64 22 -64 8 0 -5 11 -21 23 -37 21 -25 31 -30 75 -30 40 -1 56 4 76 23 14 14 26 35 26 48 0 33 -39 69 -86 77 -41 8 -55 21 -47 43 7 18 62 17 69 -2 8 -20 54 -20 54 0 0 32 -47 65 -90 65 -30 0 -47 -6 -65 -25z">
        </path>
        <path
            d="M1830 1976 l0 -126 25 0 c21 0 25 5 25 33 l1 32 28 -33 c22 -25 35 -33 56 -30 l26 3 -30 40 c-17 22 -31 44 -31 48 0 4 11 20 25 35 14 15 25 32 25 39 0 25 -41 13 -68 -19 l-27 -32 -5 64 c-4 58 -7 65 -27 68 -23 3 -23 2 -23 -122z">
        </path>
        <path d="M2023 2084 c-3 -8 2 -23 11 -32 15 -15 17 -15 32 0 21 21 11 48 -16 48 -11 0 -23 -7 -27 -16z"></path>
        <path
            d="M2137 2094 c-4 -4 -7 -61 -7 -126 0 -118 0 -119 23 -116 21 3 22 6 22 123 0 100 -3 120 -15 123 -9 1 -19 0 -23 -4z">
        </path>
        <path d="M2227 2094 c-4 -4 -7 -61 -7 -126 l0 -118 25 0 26 0 -3 122 c-3 101 -6 123 -18 126 -9 1 -19 0 -23 -4z">
        </path>
        <path
            d="M2327 2094 c-4 -4 -7 -60 -7 -125 l0 -117 70 -1 c57 0 74 3 90 19 39 39 38 97 -1 139 -18 19 -29 22 -65 18 l-43 -4 -3 36 c-3 34 -24 52 -41 35z m113 -124 c21 -21 18 -46 -8 -67 -20 -17 -27 -16 -46 3 -20 20 -20 48 0 68 20 21 30 20 54 -4z">
        </path>
        <path d="M2693 2084 c-3 -8 2 -23 11 -32 15 -15 17 -15 32 0 21 21 11 48 -16 48 -11 0 -23 -7 -27 -16z"></path>
        <path
            d="M2927 2094 c-4 -4 -7 -22 -7 -40 0 -32 -1 -32 -39 -27 -51 7 -78 -9 -92 -57 -9 -30 -9 -46 1 -69 21 -51 24 -53 133 -51 l48 1 -3 122 c-3 100 -6 122 -18 125 -9 1 -19 0 -23 -4z m-23 -120 c9 -8 16 -24 16 -34 0 -22 -25 -50 -45 -50 -7 0 -21 7 -29 16 -26 25 -19 64 14 77 24 9 28 8 44 -9z">
        </path>
        <path d="M2027 1949 c-7 -90 -5 -99 24 -99 17 0 19 8 19 90 0 81 -2 90 -19 90 -16 0 -19 -11 -24 -81z"></path>
        <path
            d="M2550 1939 c0 -88 1 -90 23 -87 19 3 23 10 27 58 4 48 9 57 33 68 31 15 38 52 9 52 -10 0 -23 -5 -29 -11 -8 -8 -13 -8 -17 0 -4 6 -16 11 -27 11 -17 0 -19 -8 -19 -91z">
        </path>
        <path
            d="M2694 2017 c-2 -8 -4 -47 -2 -88 3 -71 4 -74 28 -74 25 0 25 1 25 85 0 81 -1 85 -23 88 -12 2 -24 -3 -28 -11z">
        </path>
        <path
            d="M3034 2005 c-34 -34 -33 -97 2 -132 21 -21 32 -25 65 -20 30 4 39 2 39 -9 0 -22 -27 -28 -68 -16 -51 16 -66 -1 -29 -34 38 -32 90 -32 122 1 23 22 25 31 25 128 l0 104 -66 1 c-57 0 -70 -3 -90 -23z m101 -65 c0 -30 -4 -35 -26 -38 -33 -4 -53 20 -45 53 6 22 11 26 39 23 29 -3 32 -6 32 -38z">
        </path>
        <path
            d="M3255 2005 c-32 -31 -35 -101 -5 -132 38 -42 116 -38 140 7 11 21 10 21 -47 18 -46 -2 -58 0 -58 12 0 15 6 16 93 19 26 1 32 5 32 24 0 13 -13 35 -28 50 -38 36 -93 37 -127 2z m93 -32 c2 -9 -8 -13 -32 -13 -20 0 -36 4 -36 9 0 22 60 25 68 4z">
        </path>
    </g>
</svg>